<svg xmlns="http://www.w3.org/2000/svg" width="356.151" height="51.531" viewBox="0 0 356.151 51.531">
  <defs>
    <style>
      .cls-1 {
        fill: #cb1332;
        fill-rule: evenodd;
      }
    </style>
  </defs>
  <path id="DanielfliX" class="cls-1" d="M683.08,503.25a35.107,35.107,0,0,0,8.279-.879,19.107,19.107,0,0,0,6.153-2.584,18.664,18.664,0,0,0,4.693-4.676,25.25,25.25,0,0,0,3.516-7.506,35.993,35.993,0,0,0,1.371-10.406,34.568,34.568,0,0,0-2.022-12.252,20.978,20.978,0,0,0-6.1-8.806,17.472,17.472,0,0,0-7.559-3.692,43.079,43.079,0,0,0-9.176-.738H664.482V503.25h18.6ZM671.3,457.793h10.828q6.081,0,8.824,1.055a13.361,13.361,0,0,1,6.451,5.818q2.655,4.342,2.655,12.428a31.885,31.885,0,0,1-1.354,9.931,16.253,16.253,0,0,1-3.779,6.522,11.457,11.457,0,0,1-4.623,2.672,26.7,26.7,0,0,1-8,.949h-11V457.793Zm62.718,5.484h-7.242L710.924,503.25h6.855l4.078-11.461H739.3l4.394,11.461H750.9ZM724.248,486.2l3.867-10.3q0.492-1.335.826-2.267t0.563-1.723q0.228-.791.422-1.547t0.369-1.74h0.141q0.21,0.915.421,1.652t0.493,1.495q0.28,0.756.632,1.687t0.844,2.233l3.938,10.511H724.248Zm65.6-22.922h-6.258v30.164h-0.141l-20.6-30.164h-6.61V503.25h6.188V473.086h0.14l20.6,30.164h6.68V463.277Zm17.226,0h-6.539V503.25h6.539V463.277Zm42.574,34.348H824.3V485.391h22.746v-5.625H824.3V468.9h24.328v-5.625H817.764V503.25H849.65v-5.625Zm34.489,0H864.205V463.277h-6.539V503.25h26.473v-5.625Zm35.648-34.348H891.275V503.25h6.539V485.531h19.02v-5.625h-19.02v-11h21.973v-5.625Zm34.242,34.348H934.1V463.277h-6.539V503.25h26.472v-5.625Zm13.676-34.348h-6.539V503.25h6.539V463.277Zm13.852,39.973,12.937-17.965q0.738-1.055,2.461-3.867,1.161,1.865,2.25,3.445l12.975,18.387h8.44L1001.1,476l18.11-24.293h-7.42l-10.37,13.676a67.04,67.04,0,0,0-4.078,5.871,75.387,75.387,0,0,0-4.149-6.328l-9.351-13.219h-8.121l17.578,24.68L973.365,503.25h8.192Z" transform="translate(-664.469 -451.719)"/>
</svg>
